<svg width="1920" height="1080" viewBox="0 0 1920 1080" fill="none" xmlns="http://www.w3.org/2000/svg">
<rect width="1920" height="1080" fill="url(#paint0_radial_36_33975)"/>
<path opacity="0.7" d="M468.536 491.952L135 662.119V847L1920 807.474V700L1602.05 503.467L1556.5 533.5L1433 449L1402.44 470.201L1356 436.5L1311 470.201L1185 380C1157.5 398.5 1059.57 465.5 1044.5 465.5C1029.43 465.5 973.271 438.8 953 422.5L695.645 607.103L580.054 519.46L539 544L468.536 491.952Z" fill="#86C1E9"/>
<path opacity="0.8" d="M408.171 668.444C405.062 676.228 397.509 692.731 392.174 696.472L265.896 907.065L1520.02 868.042L1360.27 693.308L1340.5 717.5L1329.47 706.568L1318 720.5L1301.5 703L1296 711.5L1269.5 680.5L1248.5 711.5L1238.5 701L1224 720.5L1202 691.5L1188 718.707L1171.35 704.763L1162.59 716.687L1146.4 699.868L1127.14 736.638L1096.54 711.436L1075.51 739.77L1058.06 723.026L1050.47 733.455L1020.61 699.663L1002.64 726.387L981.415 709.873L969.896 728.372L953.234 703.749L939.04 730.244L922.221 713.462L914.481 731.733L885.224 707.873L873.619 724.954L860.035 709.4L839.544 736.277L832.057 727.474L825.032 747.126L796.433 713.257L787.347 730.185L760.465 693.365L745.324 704.252L731.153 689.446L712.578 706.237L705.049 696.725L689.38 719.749L665.032 693.455L661.598 699.36L632.5 664L616.985 682.84L599.5 655.5L578.959 691.554L574.5 684L565.536 699.489L538.5 659.5L516.617 695.335L509.5 686L496.266 703.689L475.5 680.533L462 699.489L443.667 680.533L431.217 694.105L408.171 668.444Z" fill="#69AAD8"/>
<path d="M1920 744.779V1080L0 1078.51V805.049C71.3516 773.959 161.755 767.309 339 782.136C560.557 800.67 792.97 842.8 911.5 861.334C1030.03 879.868 1268.95 743.997 1447.5 711.114C1590.34 684.807 1822.81 708.906 1920 744.779Z" fill="url(#paint1_linear_36_33975)"/>
<path d="M146.349 788.234L143.865 798.191L140 813.957L238 817L220.056 743.426L206.806 738.17L220.056 737.064L205.425 730.702H218.124L197.5 653.5L188.31 609L164.017 704.426L178.096 708.851L164.017 711.617L146.349 782.426L156.563 785.191L146.349 788.234Z" fill="#559BCD"/>
<path d="M113.934 783.31L110.901 793.115L106.169 808.642L203.849 817.112L190.011 742.656L177.072 736.674L190.363 736.304L176.107 729.141L188.787 729.845L172.473 651.618L165.763 606.677L136.219 700.61L150.031 705.809L135.82 707.79L114.256 777.511L124.301 780.839L113.934 783.31Z" fill="#6CADDC"/>
<path d="M184.349 801.234L181.865 811.191L178 826.957L276 830L258.056 756.426L244.806 751.17L258.056 750.064L243.425 743.702H256.124L239.008 676.489L232.383 674.277L239.008 668.191L226.31 622L202.017 717.426L216.096 721.851L202.017 724.617L184.349 795.426L194.563 798.191L184.349 801.234Z" fill="#6CADDC"/>
<g filter="url(#filter0_d_36_33975)">
<path d="M1494.69 155.87C1494.69 157.01 1494.88 158.34 1494.88 159.48C1495.64 166.51 1498.68 174.49 1501.91 174.49C1505.33 174.49 1504 170.12 1507.61 165.94C1517.68 155.11 1538.58 142.57 1554.92 142.57C1556.44 142.57 1557.01 143.14 1557.2 143.71C1557.2 144.09 1557.01 144.66 1556.63 145.23C1547.7 170.31 1504.76 221.99 1482.53 240.04H1481.2C1477.78 240.04 1474.36 239.85 1474.17 242.13C1474.17 248.97 1475.5 260.75 1480.06 260.75C1486.71 260.75 1504.95 252.39 1550.55 249.35C1551.88 249.35 1552.26 248.59 1552.26 248.21C1552.26 245.93 1540.29 239.28 1524.14 239.28C1516.54 239.28 1507.23 239.47 1498.87 239.66C1522.81 214.39 1577.72 153.02 1576.2 138.39C1575.82 134.59 1568.41 131.17 1564.42 131.17C1539.91 131.17 1497.92 146.56 1494.69 155.87Z" fill="white"/>
<path d="M1636.34 130.41C1615.06 130.41 1564.52 189.88 1564.52 238.9C1564.52 246.12 1570.79 258.28 1581.62 258.28C1603.85 258.28 1662.37 186.08 1662.37 148.27C1662.37 131.93 1649.26 130.6 1648.31 130.6C1647.74 130.6 1646.41 131.17 1646.41 131.55C1646.41 131.74 1646.6 131.93 1646.79 131.93C1647.74 131.93 1650.21 134.59 1650.21 135.92C1650.21 136.87 1650.21 137.82 1650.02 138.96C1646.41 134.78 1641.09 130.41 1636.34 130.41ZM1581.81 249.35C1578.96 249.35 1577.06 246.31 1577.06 243.08C1577.06 199 1628.93 147.32 1640.9 147.32C1644.13 147.32 1646.79 148.27 1648.69 149.22C1640.14 190.45 1597.96 249.35 1581.81 249.35Z" fill="white"/>
<path d="M1673.37 155.87C1673.37 157.01 1673.56 158.34 1673.56 159.48C1674.32 166.51 1677.36 174.49 1680.59 174.49C1684.01 174.49 1682.68 170.12 1686.29 165.94C1696.36 155.11 1717.26 142.57 1733.6 142.57C1735.12 142.57 1735.69 143.14 1735.88 143.71C1735.88 144.09 1735.69 144.66 1735.31 145.23C1726.38 170.31 1683.44 221.99 1661.21 240.04H1659.88C1656.46 240.04 1653.04 239.85 1652.85 242.13C1652.85 248.97 1654.18 260.75 1658.74 260.75C1665.39 260.75 1683.63 252.39 1729.23 249.35C1730.56 249.35 1730.94 248.59 1730.94 248.21C1730.94 245.93 1718.97 239.28 1702.82 239.28C1695.22 239.28 1685.91 239.47 1677.55 239.66C1701.49 214.39 1756.4 153.02 1754.88 138.39C1754.5 134.59 1747.09 131.17 1743.1 131.17C1718.59 131.17 1676.6 146.56 1673.37 155.87Z" fill="white"/>
<path d="M1764.29 155.87C1764.29 157.01 1764.48 158.34 1764.48 159.48C1765.24 166.51 1768.28 174.49 1771.51 174.49C1774.93 174.49 1773.6 170.12 1777.21 165.94C1787.28 155.11 1808.18 142.57 1824.52 142.57C1826.04 142.57 1826.61 143.14 1826.8 143.71C1826.8 144.09 1826.61 144.66 1826.23 145.23C1817.3 170.31 1774.36 221.99 1752.13 240.04H1750.8C1747.38 240.04 1743.96 239.85 1743.77 242.13C1743.77 248.97 1745.1 260.75 1749.66 260.75C1756.31 260.75 1774.55 252.39 1820.15 249.35C1821.48 249.35 1821.86 248.59 1821.86 248.21C1821.86 245.93 1809.89 239.28 1793.74 239.28C1786.14 239.28 1776.83 239.47 1768.47 239.66C1792.41 214.39 1847.32 153.02 1845.8 138.39C1845.42 134.59 1838.01 131.17 1834.02 131.17C1809.51 131.17 1767.52 146.56 1764.29 155.87Z" fill="white"/>
</g>
<path d="M335.096 794.181L338.189 806.58L343 826.211L221 830L243.338 738.386L259.834 731.842L243.338 730.464L261.552 722.543H245.744L267.051 638.85L278 633.5L268 632.5L282.859 571L313.101 689.823L295.575 695.334L313.101 698.778L335.096 786.948L322.38 790.392L335.096 794.181Z" fill="#3689D2"/>
<path d="M170.881 800.613L174.606 813.21L180.414 833.16L55.771 842.538L74.4874 747.425L91.0682 739.961L74.1297 739.288L92.4062 730.331L76.2331 731.042L94.2525 644.113L102.566 640.911L93.7859 633.499L107.362 573.705L143.667 694.403L125.985 700.852L144.072 703.602L170.555 793.183L157.701 797.293L170.881 800.613Z" fill="#5A9DD3"/>
<path d="M1887.51 824.448L1892.56 843.732L1900.43 874.266L1709.93 882.36L1743.18 739.065L1768.83 728.563L1743.04 726.709L1771.35 714.027L1746.66 714.311L1778.44 583.389L1791.28 578.944L1778.26 567.273L1801.92 477.277L1851.29 662.07L1824.01 670.979L1851.45 676.037L1887.38 813.167L1867.58 818.766L1887.51 824.448Z" fill="#3683C7"/>
<path d="M290.189 800.569L284.426 820.002L275.438 850.776L468.775 865.203L439.643 718.495L413.918 706.987L440.19 705.943L411.832 692.134L436.918 693.225L408.877 559.141L395.979 554.205L409.589 542.769L388.469 450.539L332.286 636.73L359.719 646.672L331.669 650.919L290.688 789.108L310.628 795.444L290.189 800.569Z" fill="#3B7EB9"/>
<path d="M1790.22 784.248L1795.27 803.531L1803.14 834.066L1612.63 842.16L1645.89 698.865L1671.54 688.362L1645.75 686.509L1674.06 673.827L1649.36 674.11L1681.15 543.189L1693.98 538.744L1680.96 527.073L1704.63 437.077L1753.99 621.87L1726.71 630.779L1754.15 635.837L1790.09 772.966L1770.29 778.566L1790.22 784.248Z" fill="#266BAC"/>
<path d="M61.0159 771.135C52.2136 765.703 16.671 756.115 0 752V1080L1920 1081V864.959C1866.99 853.231 1751.66 829.775 1698.44 829.775C1631.92 829.775 1524.4 841.503 1487.39 839.651C1450.38 837.799 1442.38 827.306 1376.86 829.775C1324.44 831.75 1165.64 867.634 1092.78 885.328C994.925 897.674 780.603 914.957 706.184 885.328C631.764 855.7 572.816 849.939 552.644 850.762C506.465 852.614 392.502 847.675 306.08 813.109C219.657 778.542 157.708 770.724 137.536 771.135C115.697 773.398 69.8181 776.567 61.0159 771.135Z" fill="url(#paint2_linear_36_33975)"/>
<g filter="url(#filter1_d_36_33975)">
<path d="M151.4 70.44C130.7 70.44 70.58 141 70.58 180.42C70.58 195.36 81.74 206.7 98.66 206.7C115.04 206.7 143.3 177.9 155.36 162.78C156.26 161.52 156.62 160.8 156.62 160.26C156.62 160.08 155.72 159.9 155.54 159.9C155.18 159.9 154.46 160.44 153.74 160.98C137.36 174.66 111.08 197.34 92 197.34C87.86 197.34 85.34 194.82 85.34 189.06C85.34 148.56 134.48 93.12 157.34 82.68C152.66 94.74 148.88 108.06 148.88 112.2C148.88 115.98 151.4 121.74 153.02 121.74C153.38 121.74 153.74 121.38 154.1 120.66C161.84 99.78 173.9 81.42 183.08 66.12C183.26 65.94 183.26 65.76 183.26 65.58C183.26 63.06 174.08 60 170.84 60C168.14 60 164 67.2 160.04 76.2C157.88 73.32 154.1 70.44 151.4 70.44Z" fill="white"/>
<path d="M234.847 136.5C234.847 138.48 235.387 141.18 236.467 143.34C222.967 167.28 211.267 189.6 211.267 195.36C211.267 200.04 222.067 204.36 224.227 204.36C226.387 204.36 227.107 200.94 228.547 196.62C233.047 183.3 243.667 163.68 254.827 144.24C264.007 141.72 275.887 137.94 286.867 135.06C276.967 156.12 269.227 176.46 269.227 186.54C269.227 199.86 276.427 212.1 280.387 212.1C282.367 212.1 282.727 211.02 282.727 209.76C282.727 208.86 282.007 204 282.007 198.42C282.007 162.42 337.447 81.78 337.447 74.94C337.447 71.16 331.147 67.92 326.647 67.92C322.867 67.92 305.047 97.44 290.287 127.86C287.227 128.04 283.987 128.4 280.567 128.94C275.707 129.66 268.507 131.28 261.487 132.72C277.327 105.72 292.627 81.6 292.627 78C292.627 73.68 285.247 66.12 279.847 66.12C256.087 66.12 214.687 91.32 210.367 91.32C208.747 91.32 207.847 90.24 207.127 90.24C206.767 90.24 206.227 90.6 206.227 92.22C206.227 96.54 208.747 108.24 212.527 108.24C214.147 108.24 251.227 78.9 278.407 72.78C278.407 72.78 258.607 104.64 240.607 135.96C237.907 135.96 236.467 133.62 235.747 133.62C235.027 133.62 234.847 136.14 234.847 136.5Z" fill="white"/>
<path d="M343.761 132.72C334.941 132.72 311.001 163.86 311.001 182.4C311.001 189.96 319.101 196.08 326.481 196.08C331.521 196.08 338.181 189.06 344.121 180.24C345.381 181.5 346.821 182.04 348.261 182.04C360.681 182.04 383.181 157.74 383.181 156.84C383.181 156.3 382.281 155.94 381.741 155.94C372.561 162.06 358.521 174.84 350.961 174.84C349.701 174.84 348.981 174.12 348.441 173.04C353.301 164.4 356.721 155.4 356.721 150.54C356.721 148.74 354.021 144.96 350.781 143.34C352.581 142.26 354.561 141.54 356.541 140.82C356.721 140.82 356.901 140.64 356.901 140.28C356.901 138.66 350.601 132.72 343.761 132.72ZM339.621 167.64C339.621 169.98 339.981 172.32 340.521 174.3C335.121 182.58 328.461 189.42 325.221 189.42C323.601 189.42 322.881 188.7 322.881 186C322.881 175.56 330.981 158.64 343.401 148.2C341.241 153.42 339.621 161.16 339.621 167.64Z" fill="white"/>
<path d="M447.728 91.14C447.728 87.36 444.308 85.38 440.348 85.38C438.368 82.86 434.768 81.24 430.988 81.24C420.728 81.24 367.628 142.8 367.628 179.88C367.628 187.8 371.408 197.52 380.588 197.52C386.168 197.52 396.608 187.08 404.348 175.02C406.508 176.46 409.208 177.18 412.268 177.18C422.888 177.18 437.648 162.24 441.968 157.02C441.968 156.12 441.068 155.94 440.348 155.94C436.568 158.82 422.708 170.7 414.968 170.7C412.088 170.7 409.928 169.8 408.488 168.18C412.088 161.34 414.608 154.68 414.608 149.64C414.608 146.04 412.088 141.54 409.028 139.02C427.748 123.18 447.728 102.84 447.728 91.14ZM434.048 92.4C435.308 92.4 435.668 92.4 435.668 93.66C435.668 103.02 406.688 134.88 387.968 150.36C402.368 121.2 427.208 92.4 434.048 92.4ZM398.048 147.84C397.688 150.18 397.328 153.06 397.328 156.12C397.328 159.72 397.688 162.96 398.408 165.66C392.288 177.72 383.288 189.96 380.228 189.96C379.148 189.96 377.888 187.26 377.888 185.1C377.888 176.82 380.588 167.28 384.728 157.38C388.508 154.86 393.008 151.62 398.048 147.84Z" fill="white"/>
<path d="M447.553 133.44C445.933 133.44 445.753 136.68 444.853 140.28C441.073 155.22 425.053 172.86 425.053 184.74C425.053 193.2 433.153 196.44 439.633 196.44C446.473 196.44 454.573 189.96 459.973 182.04C461.413 182.58 462.673 182.94 463.933 182.94C467.173 182.94 473.653 178.44 480.133 173.04C477.793 178.62 476.173 183.48 476.173 185.64C476.173 191.4 482.653 196.08 486.073 196.08C497.413 196.08 526.393 162.96 528.913 160.08C529.633 159.36 531.253 157.56 531.253 156.66C531.253 155.94 530.533 155.76 529.633 155.76C523.873 161.7 496.333 184.02 486.073 188.34C487.153 181.14 492.193 171.24 495.793 164.58C502.093 158.28 510.913 147.66 510.913 142.62C510.913 139.92 506.233 135.6 502.273 135.6C499.933 135.6 490.753 151.08 483.913 165.12C476.353 170.34 468.073 175.92 465.373 175.92C464.833 175.92 464.113 175.92 463.573 175.74C465.553 171.96 466.633 168 466.633 164.4C466.633 159.54 459.613 155.58 456.013 155.58C452.953 155.58 450.793 160.98 450.793 166.38C450.793 169.8 451.513 172.68 452.773 175.02C449.713 182.04 441.433 189.96 438.553 189.96C437.473 189.96 435.853 189.42 435.853 186.9C435.853 180.78 459.433 144.78 459.433 139.74C459.433 135.96 452.413 133.44 447.553 133.44Z" fill="white"/>
<path d="M571.243 127.68C567.103 127.68 553.423 132.9 542.263 133.08C543.343 137.58 546.763 140.64 549.283 140.64C555.223 140.64 562.243 135.6 568.183 133.44C568.183 135.96 567.463 139.02 563.863 146.4C554.503 165.12 531.823 193.74 527.323 193.74C526.603 193.74 526.243 193.02 526.243 192.12C526.243 182.58 534.703 165.48 540.643 159.18C540.643 157.74 535.063 154.32 531.463 154.32C525.523 154.32 514.183 174.3 514.183 191.04C514.183 195.9 519.583 201.66 525.703 201.66C535.783 201.66 555.043 169.62 559.723 161.34L560.263 161.52C556.663 171.06 552.703 185.46 552.703 191.76C552.703 196.26 558.283 201.12 564.223 201.12C568.363 201.12 586.363 169.98 591.943 159.72L592.663 159.9C589.963 168.18 584.023 184.2 584.023 199.5C584.023 205.44 589.603 211.2 596.083 211.2C601.843 211.2 609.223 200.94 611.923 196.44C612.463 195.72 612.643 194.82 612.643 194.46C612.643 194.1 612.463 193.92 612.103 193.92C611.743 193.92 611.203 194.28 610.843 194.46C604.003 200.22 598.963 204 596.263 204C595.543 204 594.823 202.74 594.823 201.48C594.823 180.78 613.903 141 613.903 137.04C613.903 133.8 605.263 131.64 602.743 131.64C602.023 131.64 595.183 147.12 594.103 148.92C584.023 165.84 567.283 192.12 564.763 192.12C564.403 192.12 564.403 191.76 564.403 191.22C564.403 182.4 583.123 141.36 583.123 133.8C583.123 131.46 575.203 127.68 571.243 127.68Z" fill="white"/>
<path d="M85.7 276.62C85.7 280.22 88.22 289.76 90.56 289.76C93.08 289.76 95.6 285.08 99.02 281.84C111.44 270.14 142.4 254.48 162.74 254.48C163.1 254.48 164 254.48 164 254.66C164 257.54 78.32 344.3 76.52 362.3C76.52 372.02 83.72 382.1 91.82 382.82C114.14 379.76 142.4 355.28 142.4 350.42C142.4 350.06 141.86 349.7 140.96 349.7C138.62 349.7 112.88 368.24 93.44 368.24C92 368.24 91.28 367.52 91.28 366.26C91.28 352.94 182.72 257.18 182.72 254.66C182.72 250.52 174.26 244.94 169.04 244.94C151.94 244.94 87.5 260.6 85.7 276.62Z" fill="white"/>
<path d="M177.823 311.72C169.003 311.72 145.063 342.86 145.063 361.4C145.063 368.96 153.163 375.08 160.543 375.08C165.583 375.08 172.243 368.06 178.183 359.24C179.443 360.5 180.883 361.04 182.323 361.04C194.743 361.04 217.243 336.74 217.243 335.84C217.243 335.3 216.343 334.94 215.803 334.94C206.623 341.06 192.583 353.84 185.023 353.84C183.763 353.84 183.043 353.12 182.503 352.04C187.363 343.4 190.783 334.4 190.783 329.54C190.783 327.74 188.083 323.96 184.843 322.34C186.643 321.26 188.623 320.54 190.603 319.82C190.783 319.82 190.963 319.64 190.963 319.28C190.963 317.66 184.663 311.72 177.823 311.72ZM173.683 346.64C173.683 348.98 174.043 351.32 174.583 353.3C169.183 361.58 162.523 368.42 159.283 368.42C157.663 368.42 156.943 367.7 156.943 365C156.943 354.56 165.043 337.64 177.463 327.2C175.303 332.42 173.683 340.16 173.683 346.64Z" fill="white"/>
<path d="M199.89 366.98C199.89 370.58 200.61 373.82 207.27 376.34C209.79 377.24 210.87 379.22 213.39 379.22C219.69 379.22 231.21 366.98 242.01 349.34C244.53 350.78 247.59 351.5 251.01 351.5C262.35 351.5 276.21 337.82 276.21 336.2C276.21 335.66 275.67 334.94 274.77 334.94C272.07 337.1 260.55 347 252.27 347C249.21 347 246.87 345.92 245.07 344.12C256.59 323.6 266.49 297.32 266.49 274.28C266.49 266.18 257.49 259.88 251.37 259.88C241.29 259.88 225.63 279.5 225.63 313.16C225.63 314.6 225.63 316.58 225.99 318.74C213.93 328.46 199.89 348.8 199.89 366.98ZM237.87 312.62C237.69 312.62 237.33 312.8 237.15 312.8V307.22C237.15 285.8 249.03 265.1 253.17 265.1C255.33 265.1 256.77 267.98 256.77 271.94C256.77 286.52 252.81 302.36 247.05 317.12C244.35 314.96 240.03 312.62 237.87 312.62ZM234.99 343.22C225.63 360.14 215.91 372.02 211.59 372.02C210.87 372.02 211.05 371.48 211.05 370.94C211.05 359.96 219.33 342.32 228.69 330.8C230.13 335.3 232.29 339.62 234.99 343.22ZM237.69 322.52C240.03 320.9 242.37 320 244.53 320H245.97C243.99 324.86 241.83 329.54 239.67 334.04C238.59 330.44 238.05 326.48 237.69 322.52Z" fill="white"/>
<path d="M293.839 311.72C285.019 311.72 261.079 342.86 261.079 361.4C261.079 368.96 269.179 375.08 276.559 375.08C281.599 375.08 288.259 368.06 294.199 359.24C295.459 360.5 296.899 361.04 298.339 361.04C310.759 361.04 333.259 336.74 333.259 335.84C333.259 335.3 332.359 334.94 331.819 334.94C322.639 341.06 308.599 353.84 301.039 353.84C299.779 353.84 299.059 353.12 298.519 352.04C303.379 343.4 306.799 334.4 306.799 329.54C306.799 327.74 304.099 323.96 300.859 322.34C302.659 321.26 304.639 320.54 306.619 319.82C306.799 319.82 306.979 319.64 306.979 319.28C306.979 317.66 300.679 311.72 293.839 311.72ZM289.699 346.64C289.699 348.98 290.059 351.32 290.599 353.3C285.199 361.58 278.539 368.42 275.299 368.42C273.679 368.42 272.959 367.7 272.959 365C272.959 354.56 281.059 337.64 293.479 327.2C291.319 332.42 289.699 340.16 289.699 346.64Z" fill="white"/>
<path d="M372.786 306.68C368.646 306.68 354.966 311.9 343.806 312.08C344.886 316.58 348.306 319.64 350.826 319.64C356.766 319.64 363.786 314.6 369.726 312.44C369.726 314.96 369.006 318.02 365.406 325.4C356.046 344.12 333.366 372.74 328.866 372.74C328.146 372.74 327.786 372.02 327.786 371.12C327.786 361.58 336.246 344.48 342.186 338.18C342.186 336.74 336.606 333.32 333.006 333.32C327.066 333.32 315.726 353.3 315.726 370.04C315.726 374.9 321.126 380.66 327.246 380.66C337.326 380.66 356.586 348.62 361.266 340.34L361.806 340.52C358.206 350.06 354.246 364.46 354.246 370.76C354.246 375.26 359.826 380.12 365.766 380.12C369.906 380.12 387.906 348.98 393.486 338.72L394.206 338.9C391.506 347.18 385.566 363.2 385.566 378.5C385.566 384.44 391.146 390.2 397.626 390.2C403.386 390.2 410.766 379.94 413.466 375.44C414.006 374.72 414.186 373.82 414.186 373.46C414.186 373.1 414.006 372.92 413.646 372.92C413.286 372.92 412.746 373.28 412.386 373.46C405.546 379.22 400.506 383 397.806 383C397.086 383 396.366 381.74 396.366 380.48C396.366 359.78 415.446 320 415.446 316.04C415.446 312.8 406.806 310.64 404.286 310.64C403.566 310.64 396.726 326.12 395.646 327.92C385.566 344.84 368.826 371.12 366.306 371.12C365.946 371.12 365.946 370.76 365.946 370.22C365.946 361.4 384.666 320.36 384.666 312.8C384.666 310.46 376.746 306.68 372.786 306.68Z" fill="white"/>
<path d="M475.023 239.9C475.023 241.16 475.563 241.7 475.563 244.22C475.563 248.72 447.663 300.02 444.423 315.86C443.163 321.8 441.723 325.94 441.723 330.98C441.723 334.76 442.983 337.1 443.523 337.1C444.423 337.1 446.403 332.42 447.843 329.18C463.323 294.44 488.163 263.84 488.163 254.48C488.163 245.66 478.443 239.18 475.923 239.18C475.563 239.18 475.023 239.36 475.023 239.9ZM431.823 352.04C431.823 352.76 432.183 353.12 432.183 353.48C432.183 355.1 427.683 363.02 427.683 368.06C427.683 372.38 428.763 374.72 430.383 374.72C431.463 374.72 434.883 372.92 437.043 370.04C439.923 366.26 444.603 361.58 444.603 359.06C444.603 354.74 433.083 352.04 431.823 352.04Z" fill="white"/>
</g>
<path fill-rule="evenodd" clip-rule="evenodd" d="M0 844.088L126 848L96.1549 725.612L89.5 701.5L64.4732 592.641L48.5 594.5L61.5 581.5L43.3521 502L2.94648 660.737L26.3634 668.098L2.94648 672.699L0 684.51V844.088Z" fill="#3A82BE"/>
<defs>
<filter id="filter0_d_36_33975" x="1474.17" y="130.41" width="371.661" height="137.34" filterUnits="userSpaceOnUse" color-interpolation-filters="sRGB">
<feFlood flood-opacity="0" result="BackgroundImageFix"/>
<feColorMatrix in="SourceAlpha" type="matrix" values="0 0 0 0 0 0 0 0 0 0 0 0 0 0 0 0 0 0 127 0" result="hardAlpha"/>
<feOffset dy="7"/>
<feComposite in2="hardAlpha" operator="out"/>
<feColorMatrix type="matrix" values="0 0 0 0 0.458824 0 0 0 0 0.760784 0 0 0 0 0.941176 0 0 0 1 0"/>
<feBlend mode="normal" in2="BackgroundImageFix" result="effect1_dropShadow_36_33975"/>
<feBlend mode="normal" in="SourceGraphic" in2="effect1_dropShadow_36_33975" result="shape"/>
</filter>
<filter id="filter1_d_36_33975" x="70.58" y="60" width="543.323" height="340.2" filterUnits="userSpaceOnUse" color-interpolation-filters="sRGB">
<feFlood flood-opacity="0" result="BackgroundImageFix"/>
<feColorMatrix in="SourceAlpha" type="matrix" values="0 0 0 0 0 0 0 0 0 0 0 0 0 0 0 0 0 0 127 0" result="hardAlpha"/>
<feOffset dy="10"/>
<feComposite in2="hardAlpha" operator="out"/>
<feColorMatrix type="matrix" values="0 0 0 0 0.458824 0 0 0 0 0.760784 0 0 0 0 0.941176 0 0 0 1 0"/>
<feBlend mode="normal" in2="BackgroundImageFix" result="effect1_dropShadow_36_33975"/>
<feBlend mode="normal" in="SourceGraphic" in2="effect1_dropShadow_36_33975" result="shape"/>
</filter>
<radialGradient id="paint0_radial_36_33975" cx="0" cy="0" r="1" gradientUnits="userSpaceOnUse" gradientTransform="translate(960 540) rotate(90) scale(821.5 1460.44)">
<stop stop-color="#C4ECFF"/>
<stop offset="0.36023" stop-color="#B1E4FE"/>
<stop offset="0.630208" stop-color="#7DD0FC"/>
<stop offset="0.822917" stop-color="#42ADF1"/>
<stop offset="0.9999" stop-color="#2694E1"/>
</radialGradient>
<linearGradient id="paint1_linear_36_33975" x1="1825.5" y1="766.198" x2="362" y2="780.251" gradientUnits="userSpaceOnUse">
<stop stop-color="#94CFF7"/>
<stop stop-color="#99D1F7"/>
<stop offset="0.55269" stop-color="#F1FAFF"/>
<stop offset="0.975828" stop-color="#C1E6FF"/>
</linearGradient>
<linearGradient id="paint2_linear_36_33975" x1="962" y1="752" x2="962" y2="1199.5" gradientUnits="userSpaceOnUse">
<stop stop-color="#9FD7FC"/>
<stop offset="1" stop-color="white"/>
</linearGradient>
</defs>
</svg>
