<?xml version="1.0" encoding="UTF-8" standalone="no"?>
<svg
   xmlns:dc="http://purl.org/dc/elements/1.1/"
   xmlns:cc="http://creativecommons.org/ns#"
   xmlns:rdf="http://www.w3.org/1999/02/22-rdf-syntax-ns#"
   xmlns:svg="http://www.w3.org/2000/svg"
   xmlns="http://www.w3.org/2000/svg"
   xmlns:sodipodi="http://sodipodi.sourceforge.net/DTD/sodipodi-0.dtd"
   xmlns:inkscape="http://www.inkscape.org/namespaces/inkscape"
   width="1920"
   height="381"
   viewBox="0 0 1920 381"
   fill="none"
   version="1.1"
   id="svg880"
   sodipodi:docname="footer-common.svg"
   inkscape:version="1.0.2-2 (e86c870879, 2021-01-15)">
  <metadata
     id="metadata884">
    <rdf:RDF>
      <cc:Work
         rdf:about="">
        <dc:format>image/svg+xml</dc:format>
        <dc:type
           rdf:resource="http://purl.org/dc/dcmitype/StillImage" />
        <dc:title></dc:title>
      </cc:Work>
    </rdf:RDF>
  </metadata>
  <sodipodi:namedview
     pagecolor="#ffffff"
     bordercolor="#666666"
     borderopacity="1"
     objecttolerance="10"
     gridtolerance="10"
     guidetolerance="10"
     inkscape:pageopacity="0"
     inkscape:pageshadow="2"
     inkscape:window-width="1920"
     inkscape:window-height="1052"
     id="namedview882"
     showgrid="false"
     inkscape:zoom="0.3140625"
     inkscape:cx="582.65831"
     inkscape:cy="72.310948"
     inkscape:window-x="-8"
     inkscape:window-y="-8"
     inkscape:window-maximized="1"
     inkscape:current-layer="svg880" />
  <path
     d="M1925.5 45.5V382H-1.99988V107.5C69.3518 76.2918 161.755 68.116 339 82.9999C560.557 101.605 792.97 143.895 911.5 162.5C1030.03 181.105 1268.95 44.715 1447.5 11.7064C1590.34 -14.7005 1828.31 9.49054 1925.5 45.5Z"
     fill="url(#paint0_linear_16_30377)"
     id="path867"
     inkscape:export-xdpi="696"
     inkscape:export-ydpi="696" />
  <defs
     id="defs878">
    <linearGradient
       id="paint0_linear_16_30377"
       x1="1825.5"
       y1="67.0001"
       x2="362"
       y2="81.0001"
       gradientUnits="userSpaceOnUse">
      <stop
         stop-color="#94CFF7"
         id="stop869" />
      <stop
         stop-color="#99D1F7"
         id="stop871" />
      <stop
         offset="0.55269"
         stop-color="#F1FAFF"
         id="stop873" />
      <stop
         offset="0.975828"
         stop-color="#C1E6FF"
         id="stop875" />
    </linearGradient>
    <linearGradient
       id="paint0_linear_16_30387"
       x1="962"
       y1="0"
       x2="962"
       y2="447.5"
       gradientUnits="userSpaceOnUse">
      <stop
         stop-color="#9FD7FC"
         id="stop903" />
      <stop
         offset="1"
         stop-color="white"
         id="stop905" />
    </linearGradient>
  </defs>
  <g
     style="fill:none"
     id="g920"
     transform="translate(-1.99988,107.5)"
     inkscape:export-xdpi="696"
     inkscape:export-ydpi="696">
    <path
       d="M 61.0159,19.1351 C 52.2136,13.7032 16.671,4.11507 0,0 V 329 H 1924 V 112.959 c -53.01,-11.728 -172.34,-35.1841 -225.56,-35.1841 -66.52,0 -174.04,11.7279 -211.05,9.8761 -37.01,-1.8517 -45.01,-12.3452 -110.53,-9.8761 -52.42,1.9752 -211.22,37.8591 -284.08,55.5531 -97.855,12.346 -312.177,29.629 -386.596,0 C 631.764,103.7 572.816,97.9387 552.644,98.7617 506.465,100.614 392.502,95.6754 306.08,61.1088 219.657,26.5422 157.708,18.7236 137.536,19.1351 c -21.839,2.2633 -67.7179,5.4319 -76.5201,0 z"
       fill="url(#paint0_linear_16_30387)"
       id="path901"
       style="fill:url(#paint0_linear_16_30387)" />
  </g>
</svg>
