<svg width="1920" height="328" viewBox="0 0 1920 328" fill="none" xmlns="http://www.w3.org/2000/svg">
<path d="M61.0159 19.1351C52.2136 13.7032 16.671 4.11507 0 0V329H1924V112.959C1870.99 101.231 1751.66 77.7749 1698.44 77.7749C1631.92 77.7749 1524.4 89.5028 1487.39 87.651C1450.38 85.7993 1442.38 75.3058 1376.86 77.7749C1324.44 79.7501 1165.64 115.634 1092.78 133.328C994.925 145.674 780.603 162.957 706.184 133.328C631.764 103.7 572.816 97.9387 552.644 98.7617C506.465 100.614 392.502 95.6754 306.08 61.1088C219.657 26.5422 157.708 18.7236 137.536 19.1351C115.697 21.3984 69.8181 24.567 61.0159 19.1351Z" fill="url(#paint0_linear_16_30387)"/>
<defs>
<linearGradient id="paint0_linear_16_30387" x1="962" y1="0" x2="962" y2="447.5" gradientUnits="userSpaceOnUse">
<stop stop-color="#9FD7FC"/>
<stop offset="1" stop-color="white"/>
</linearGradient>
</defs>
</svg>
